<svg width="63" height="253" viewBox="0 0 63 253" fill="none" xmlns="http://www.w3.org/2000/svg">
<path fill-rule="evenodd" clip-rule="evenodd" d="M0 250.525C6.43132 253.23 13.0736 253.139 16.2061 252.585L16.2125 252.584C24.2604 251.052 28.8475 245.525 31.3027 239.315C33.7522 233.121 34.1055 226.198 33.6819 221.706L33.6809 221.695L33.6794 221.684C33.1622 217.955 31.2007 213.874 28.4066 209.743C28.3221 209.618 28.2368 209.493 28.1507 209.367C34.1215 209.392 38.9616 208.401 41.8902 207.318L41.9576 207.293L42.0152 207.25C47.8018 202.944 51.1832 198.297 52.8019 193.588C54.4205 188.88 54.262 184.151 53.0402 179.704C53.0136 179.607 52.9865 179.51 52.9588 179.413C55.1285 177.077 56.6018 174.436 57.5363 171.68C59.5018 165.882 59.0644 159.63 57.816 154.736C58.6336 153.509 59.3254 152.22 59.905 150.894C63.0408 143.72 62.8824 135.491 61.7813 130.101L61.764 130.017L61.7193 129.943C60.6359 128.15 59.5977 126.533 58.5943 125.073C58.8111 124.742 59.0182 124.406 59.2153 124.063L59.2339 124.031L59.2475 123.996C61.7035 117.709 63.0444 108.106 58.993 99.776C58.1018 97.9436 56.9535 96.18 55.5064 94.5317C56.0736 84.2995 52.4856 76.8518 47.5887 71.667C46.8507 70.8856 46.0834 70.156 45.2965 69.4761C46.216 63.4738 45.1929 58.0463 43.6857 54.4301C39.37 43.5382 29.8977 39.6636 19.9435 39.215C18.3252 39.142 16.6916 39.1593 15.0619 39.2515C15.2328 38.8682 15.3999 38.4843 15.5629 38.0999C20.2184 27.1217 21.6191 15.5433 13.9732 7.43488C10.1984 3.43177 6.21603 1.2392 2.24239 0.360144C1.49285 0.194328 0.744876 0.0755212 0 0V1.00544C0.674082 1.07748 1.34993 1.18689 2.02639 1.33654C5.78223 2.16741 9.59208 4.24636 13.2456 8.12093C20.4564 15.7679 19.2639 26.8112 14.6423 37.7095C14.4131 38.2499 14.1758 38.7893 13.9308 39.3275C9.03826 39.707 4.22093 40.7338 0 41.9975V43.0419C4.07004 41.805 8.71722 40.7867 13.4456 40.371C9.78903 48.0755 4.65592 55.4419 0 61.0826V62.6431C4.99482 56.7258 10.6787 48.6953 14.5922 40.2823C16.3638 40.1642 18.1412 40.1348 19.8985 40.214C29.6265 40.6524 38.6402 44.4062 42.7575 54.8023L42.7609 54.8107C44.1552 58.1537 45.1285 63.1558 44.3936 68.7241C39.7443 64.9921 34.5625 62.9158 30.7783 62.1132L30.7205 62.1009L30.6613 62.1025C22.5567 62.3174 12.7138 64.7754 3.72805 67.7431C2.46693 68.1596 1.22188 68.5864 0 69.0188V70.0799C1.32202 69.6093 2.67231 69.1449 4.04165 68.6926C12.9771 65.7416 22.6829 63.3251 30.6285 63.1038C34.3999 63.9139 39.6182 66.0389 44.2186 69.8729C43.9443 71.4609 43.5276 73.0878 42.9399 74.7293C41.7468 78.0614 39.845 81.4642 36.9849 84.7296C33.9137 84.0685 30.4923 83.6111 26.6877 83.3942L26.6637 83.3928L26.6396 83.3937C22.1172 83.5714 15.0328 83.9443 8.47387 84.4862C5.43793 84.737 2.51054 85.0244 0 85.3458V86.3541C2.51737 86.0287 5.4761 85.7373 8.5562 85.4828C15.0856 84.9434 22.1416 84.5715 26.6547 84.3939C30.1712 84.5954 33.3458 85.0039 36.2081 85.5876C32.3643 89.6968 26.9436 93.5557 19.4371 96.74L19.4313 96.7425L0 105.28V106.372L19.8277 97.6605L19.831 97.6591C27.7174 94.3133 33.374 90.2149 37.3425 85.8318C45.4185 87.6633 50.8902 90.9401 54.4829 94.8888C54.4343 95.6241 54.3637 96.3743 54.2702 97.1396L54.2643 97.1879L54.2678 97.2364C54.4191 99.3229 53.0645 103.203 48.13 107.716C46.6971 109.027 44.9666 110.386 42.892 111.765C41.0491 111.177 39.1304 110.774 37.0671 110.398C36.3041 110.259 35.5218 110.123 34.7154 109.983C32.3232 109.569 29.7182 109.117 26.7739 108.424C20.3589 106.912 11.9416 107.232 4.0655 108.228C2.69117 108.402 1.33159 108.596 0 108.806V109.818C1.37132 109.601 2.77323 109.399 4.1909 109.22C12.037 108.228 20.3089 107.928 26.5446 109.397C29.5207 110.098 32.1674 110.557 34.5656 110.972C35.3662 111.111 36.1393 111.245 36.8875 111.382C38.6365 111.701 40.253 112.035 41.7924 112.477C36.8382 115.603 30.0887 118.801 21.0067 121.734C16.7822 122.677 9.14814 124.28 2.73877 125.378C1.80149 125.237 0.887295 125.108 0 124.991V126.838C0.879201 126.702 1.80018 126.552 2.74806 126.39C10.6723 127.588 20.2345 129.633 29.1181 132.71C32.5118 133.885 35.8011 135.209 38.8589 136.691C35.798 137.636 32.567 138.391 29.2685 138.984C19.0774 140.817 8.29259 141.098 0 140.718V141.719C8.34739 142.099 19.1869 141.813 29.4455 139.968C33.1293 139.306 36.7445 138.441 40.1464 137.331C42.1445 138.352 44.0313 139.443 45.7688 140.608C50.476 143.766 54.0515 147.441 55.8075 151.677C56.1416 152.556 56.4557 153.52 56.7334 154.55C53.9697 158.522 49.7702 161.785 43.5499 163.391C41.861 161.528 40.1397 159.9 38.5319 158.567C34.0347 154.453 25.7586 150.57 17.3115 147.392C11.2382 145.107 5.03499 143.171 0 141.767V142.805C4.96084 144.196 11.0239 146.094 16.9594 148.328C25.4128 151.508 33.5271 155.339 37.8656 159.313L37.8747 159.321L37.8843 159.329C39.3472 160.541 40.902 161.999 42.4364 163.656C41.1001 163.947 39.6759 164.165 38.1585 164.301C20.3158 165.905 7.28403 163.972 0 161.959V162.996C7.48652 165.025 20.5452 166.888 38.2481 165.297C40.0189 165.138 41.6693 164.87 43.2064 164.506C46.7806 168.542 50.139 173.625 51.8352 179.142C48.4038 182.637 43.232 185.394 35.6433 186.656C30.9012 186.83 23.1726 186.59 15.3849 185.304C9.91887 184.401 4.46592 182.99 0 180.87V182.795C5.32374 186.936 11.6188 192.301 17.2683 198.045C20.5717 201.403 23.6478 204.885 26.1784 208.322C18.5741 208.004 9.34571 205.979 0 200.461V201.619C9.64487 207.189 19.1497 209.136 26.9183 209.348C27.1434 209.667 27.3635 209.985 27.5783 210.303C30.3338 214.377 32.1984 218.304 32.6874 221.811C33.0987 226.19 32.748 232.941 30.3727 238.948C28.0016 244.944 23.6388 250.151 16.029 251.601C12.955 252.143 6.32019 252.215 0 249.436V250.525ZM29.4454 131.765C21.5393 129.027 13.1087 127.101 5.75241 125.859C11.5042 124.807 17.6481 123.509 21.2471 122.705L21.2697 122.7L21.2918 122.693C30.8809 119.598 37.9297 116.196 43.0387 112.865C43.7022 113.09 44.3535 113.341 44.9976 113.626C49.0043 115.399 52.7922 118.525 57.381 125.078C54.8888 128.606 51.1819 131.411 46.7106 133.617C44.6866 134.616 42.5106 135.49 40.2277 136.251C36.8632 134.559 33.2104 133.069 29.4454 131.765ZM45.4022 112.711C44.963 112.517 44.5212 112.338 44.0756 112.173C45.9149 110.912 47.4803 109.666 48.8049 108.454C53.8089 103.878 55.4273 99.745 55.2685 97.2138C55.3196 96.7924 55.3638 96.3754 55.4014 95.9628C56.4928 97.3218 57.3812 98.7484 58.0937 100.213C61.9736 108.191 60.7167 117.464 58.3297 123.597C58.2152 123.795 58.0972 123.991 57.9755 124.185C53.4212 117.755 49.562 114.552 45.4022 112.711ZM47.1532 134.514C51.5976 132.321 55.3728 129.516 57.984 125.952C58.8941 127.291 59.8365 128.764 60.8186 130.386C61.8767 135.643 62.0019 143.6 58.9887 150.494C58.5482 151.502 58.0403 152.488 57.4577 153.44C57.2335 152.689 56.9919 151.978 56.7395 151.315L56.737 151.308L56.7342 151.301C54.8754 146.811 51.1242 142.996 46.3258 139.778C44.8043 138.757 43.1738 137.794 41.4592 136.887C43.4496 136.188 45.3578 135.4 47.1532 134.514ZM17.9813 197.343C12.5366 191.808 6.50109 186.626 1.29722 182.54C5.52928 184.298 10.4042 185.495 15.222 186.291C23.1017 187.592 30.9152 187.833 35.7123 187.655L35.7441 187.653L35.7755 187.648C43.294 186.402 48.5624 183.706 52.1489 180.239C53.2602 184.45 53.3652 188.873 51.8562 193.263C50.3202 197.732 47.0974 202.207 41.476 206.405C38.5299 207.482 33.569 208.469 27.4423 208.36C24.7901 204.666 21.5058 200.927 17.9813 197.343ZM44.2921 164.227C47.6967 168.149 50.8792 173.006 52.6167 178.299C54.4822 176.17 55.7599 173.805 56.5892 171.359C58.3691 166.108 58.1002 160.432 57.0489 155.818C54.2325 159.559 50.1252 162.616 44.2921 164.227ZM38.0899 84.9798C45.5803 86.7608 50.8933 89.7953 54.5494 93.5035C54.8289 84.0579 51.4219 77.1819 46.8617 72.3536C46.2899 71.7482 45.6998 71.1748 45.0963 70.6325C44.815 72.0876 44.4167 73.5713 43.8813 75.0664C42.6931 78.3851 40.8331 81.7504 38.0899 84.9798Z" fill="#838199"/>
</svg>
